<svg width="466" height="62" viewBox="0 0 466 62" fill="none" xmlns="http://www.w3.org/2000/svg">
<g clip-path="url(#clip0)">
<path d="M39.7138 17.944C40.4845 17.8533 41.0738 17.8987 41.4818 18.08C43.4312 18.76 44.3378 20.6867 44.2018 23.86C44.1565 25.22 43.7485 27.4867 42.9778 30.66C41.8445 35.1027 40.6432 38.684 39.3738 41.404C37.7418 44.7133 35.8378 46.8893 33.6618 47.932C32.4379 48.5213 31.0325 48.7933 29.4458 48.748C26.7712 48.612 24.6405 47.9547 23.0538 46.776C22.3285 46.232 21.8298 45.7333 21.5578 45.28C21.5125 45.1893 21.4672 45.1213 21.4218 45.076L21.0138 45.484C20.4698 46.2093 19.7898 46.844 18.9738 47.388C18.1578 47.932 17.3418 48.3173 16.5258 48.544C16.1178 48.6347 15.4152 48.68 14.4178 48.68C12.8765 48.68 11.6072 48.544 10.6098 48.272C6.93784 47.32 4.78451 45.076 4.14984 41.54C3.96851 40.18 4.01384 38.752 4.28584 37.256C4.64851 35.2613 5.64584 32.1107 7.27784 27.804C7.91251 26.2173 8.27518 25.1973 8.36584 24.744C8.90984 23.2027 8.97784 22.1373 8.56984 21.548C8.38851 21.276 8.02584 21.14 7.48184 21.14C5.57784 21.3213 3.96851 22.9533 2.65384 26.036C2.42718 26.58 2.22318 27.1693 2.04184 27.804C1.86051 28.348 1.76984 28.6427 1.76984 28.688C1.27118 28.96 0.727178 29.096 0.137844 29.096H-1.15416L-1.35816 28.892C-1.53949 28.7107 -1.53949 28.28 -1.35816 27.6C-1.08616 26.784 -0.700822 25.7867 -0.202156 24.608C1.56584 21.072 3.83251 18.9187 6.59784 18.148C7.00584 18.0573 7.59518 18.012 8.36584 18.012C9.18184 18.012 9.77118 18.0573 10.1338 18.148C12.7178 18.8733 14.2138 20.3693 14.6218 22.636C14.6672 23.0893 14.6898 23.5427 14.6898 23.996C14.6445 24.812 14.2818 26.1267 13.6018 27.94C11.8792 32.4733 10.8365 35.76 10.4738 37.8C9.74851 42.0613 10.7912 44.5773 13.6018 45.348C14.5538 45.62 15.4605 45.62 16.3218 45.348C17.6818 44.8493 18.8605 43.6253 19.8578 41.676L20.0618 41.2V40.316C20.0618 39.1827 20.1525 38.14 20.3338 37.188L22.3738 28.892C23.5978 24.0413 24.3232 21.3213 24.5498 20.732C25.2752 19.4173 26.3632 18.7373 27.8138 18.692C28.5392 18.692 29.1512 18.896 29.6498 19.304C29.8765 19.3947 30.0805 19.644 30.2618 20.052C30.4885 20.5507 30.4885 21.3213 30.2618 22.364C30.0805 23.2707 29.5138 25.6053 28.5618 29.368C27.2472 34.6267 26.5445 37.5053 26.4538 38.004C26.3632 38.548 26.3178 39.3413 26.3178 40.384C26.3178 41.6987 26.4765 42.6733 26.7938 43.308C27.5192 44.8947 28.9018 45.6427 30.9418 45.552C31.4405 45.5067 31.9845 45.3707 32.5738 45.144C34.5232 44.2373 36.2005 41.744 37.6058 37.664C38.6485 34.5813 39.3058 32.088 39.5779 30.184C39.8498 28.144 39.1018 26.308 37.3338 24.676C36.8805 24.3133 36.5632 23.9507 36.3818 23.588C36.2005 23.2707 36.0872 22.908 36.0418 22.5C36.0418 21.82 36.1778 21.1853 36.4498 20.596C37.1298 19.1907 38.2178 18.3067 39.7138 17.944Z" fill="white"/>
<path d="M61.8696 18.08C63.4563 17.8533 65.0203 17.9213 66.5616 18.284C70.0976 19.0547 72.6363 21.0267 74.1776 24.2C75.991 27.8267 75.9003 31.884 73.9056 36.372C73.543 37.188 73.135 37.9813 72.6816 38.752C70.0976 43.0587 66.5163 46.0507 61.9376 47.728C60.759 48.136 59.5576 48.4307 58.3336 48.612C57.3816 48.7933 56.1803 48.816 54.7296 48.68C54.5936 48.6347 54.4803 48.612 54.3896 48.612C51.8056 48.204 49.6296 47.1613 47.8616 45.484C46.3656 43.9427 45.391 42.1293 44.9376 40.044C43.9856 35.964 44.8923 31.7707 47.6576 27.464C49.2896 24.9253 51.3296 22.84 53.7776 21.208C56.4523 19.3947 59.1496 18.352 61.8696 18.08ZM64.1816 21.208C62.4136 20.9813 60.7136 21.3213 59.0816 22.228C56.4976 23.6333 54.6163 26.036 53.4376 29.436C52.667 31.5213 52.055 33.8107 51.6016 36.304C50.7856 40.3387 51.3523 43.0813 53.3016 44.532C53.4376 44.6227 53.5736 44.7133 53.7096 44.804C54.299 45.1667 54.9336 45.3707 55.6136 45.416C58.107 45.8693 60.487 45.1213 62.7536 43.172C63.2523 42.764 63.7056 42.3107 64.1136 41.812C65.4736 40.18 66.5843 37.6187 67.4456 34.128C67.5363 33.9013 67.6043 33.652 67.6496 33.38C68.375 30.524 68.7376 28.3933 68.7376 26.988C68.7376 25.8547 68.6016 24.9707 68.3296 24.336C67.967 23.3387 67.287 22.5453 66.2896 21.956C65.7003 21.548 64.9976 21.2987 64.1816 21.208Z" fill="white"/>
<path d="M83.6535 18.012C84.4695 17.9213 85.3989 17.944 86.4415 18.08C88.5722 18.5787 90.0909 19.6213 90.9975 21.208L91.2015 21.548L91.6095 21.072C92.5615 20.12 93.5589 19.3947 94.6015 18.896C95.7802 18.3067 97.0949 18.012 98.5455 18.012C99.3615 18.012 99.9282 18.0573 100.246 18.148C101.062 18.3747 101.855 18.76 102.626 19.304C104.167 20.5733 104.847 22.296 104.666 24.472C104.666 24.608 104.666 24.7213 104.666 24.812C104.394 27.0333 103.442 28.5293 101.81 29.3C100.54 29.8893 99.3389 29.9347 98.2055 29.436C96.8909 28.8013 96.3922 27.6453 96.7095 25.968C96.8909 25.0613 97.3215 24.2227 98.0015 23.452C98.5909 22.908 99.2482 22.5227 99.9735 22.296L100.45 22.092L100.246 21.888C99.2029 21.0267 97.8882 20.8907 96.3015 21.48C94.7149 22.1147 93.2642 23.588 91.9495 25.9L91.4055 26.716L89.0255 36.44C87.3482 42.968 86.4415 46.368 86.3055 46.64C85.6709 48 84.6055 48.7027 83.1095 48.748C82.3842 48.748 81.7495 48.544 81.2055 48.136C80.9789 48.0453 80.7749 47.796 80.5935 47.388C80.3669 46.9347 80.3442 46.2547 80.5255 45.348C80.7522 44.3053 81.5455 41.0413 82.9055 35.556C84.6735 28.5293 85.5802 24.88 85.6255 24.608C85.9429 22.3867 85.5122 21.2307 84.3335 21.14C84.1975 21.14 84.0615 21.14 83.9255 21.14C82.5655 21.412 81.3642 23.6333 80.3215 27.804C80.1402 28.348 80.0495 28.6427 80.0495 28.688C79.5509 28.96 79.0069 29.096 78.4175 29.096H77.1255L76.9215 28.892C76.7402 28.7107 76.7402 28.2347 76.9215 27.464C77.7829 24.2907 78.8482 21.9107 80.1175 20.324C81.1149 19.1 82.2935 18.3293 83.6535 18.012Z" fill="white"/>
<path d="M114.401 1.216C118.028 0.943998 119.796 0.807999 119.705 0.807999C120.113 0.807999 120.385 0.966665 120.521 1.284C120.567 1.46533 119.456 6.13466 117.189 15.292L113.721 29.028L114.061 28.824C115.331 28.0533 117.167 26.5347 119.569 24.268C121.065 22.8173 122.267 21.7067 123.173 20.936C125.667 18.8507 128.047 17.8533 130.313 17.944C131.039 17.9893 131.628 18.148 132.081 18.42C133.033 18.9187 133.691 19.8253 134.053 21.14C134.325 22.228 134.371 23.4747 134.189 24.88C133.781 27.056 132.807 28.5293 131.265 29.3C129.996 29.8893 128.795 29.9347 127.661 29.436C126.347 28.8013 125.848 27.6453 126.165 25.968C126.347 25.0613 126.777 24.2227 127.457 23.452C128.364 22.636 129.339 22.16 130.381 22.024C130.653 22.024 130.789 22.0013 130.789 21.956C130.789 21.82 130.631 21.5933 130.313 21.276C129.815 20.9133 128.817 21.004 127.321 21.548C126.641 21.7747 125.848 22.2053 124.941 22.84C123.808 23.5653 122.131 25.016 119.909 27.192C118.504 28.552 117.439 29.5493 116.713 30.184C116.487 30.3653 116.441 30.4787 116.577 30.524C116.713 30.524 117.008 30.5693 117.461 30.66C119.048 31.068 120.227 31.476 120.997 31.884C122.856 32.7453 124.148 33.924 124.873 35.42C125.191 36.0547 125.349 36.8933 125.349 37.936C125.349 38.6613 125.281 39.3413 125.145 39.976C124.873 41.1093 124.737 42.152 124.737 43.104C124.737 44.1467 124.896 44.8267 125.213 45.144C125.576 45.5067 126.165 45.5973 126.981 45.416C127.48 45.28 127.933 44.9853 128.341 44.532C129.293 43.58 130.2 41.4493 131.061 38.14C131.152 37.8227 131.492 37.6413 132.081 37.596C132.217 37.596 132.444 37.596 132.761 37.596C133.623 37.596 134.099 37.6413 134.189 37.732C134.461 37.9133 134.461 38.4573 134.189 39.364C133.509 41.812 132.535 43.8747 131.265 45.552C130.132 47.1387 128.795 48.136 127.253 48.544C126.936 48.6347 126.392 48.68 125.621 48.68C124.805 48.68 124.216 48.6347 123.853 48.544C122.901 48.272 122.131 47.932 121.541 47.524C119.909 46.436 118.957 44.7813 118.685 42.56C118.595 41.6533 118.663 40.7693 118.889 39.908C119.116 38.7293 119.116 37.8 118.889 37.12C118.255 35.352 116.464 34.1507 113.517 33.516L112.701 33.38L111.069 39.772C109.936 44.1693 109.324 46.4587 109.233 46.64C108.78 47.592 108.009 48.2493 106.921 48.612C106.196 48.7933 105.471 48.7707 104.745 48.544C104.201 48.3173 103.771 47.9093 103.453 47.32C103.227 46.9573 103.181 46.4813 103.317 45.892C103.453 44.9853 105.017 38.5253 108.009 26.512C111.364 13.184 112.951 6.316 112.769 5.908C112.452 5.59066 111.477 5.40933 109.845 5.364C108.757 5.364 108.145 5.20533 108.009 4.888C107.919 4.752 107.987 4.23066 108.213 3.324C108.44 2.372 108.621 1.85066 108.757 1.76C108.893 1.624 109.029 1.556 109.165 1.556L114.401 1.216Z" fill="white"/>
<path d="M167.859 3.18799C168.765 2.96132 169.627 3.02932 170.443 3.39199C171.667 3.98132 172.211 5.02399 172.075 6.51999C172.029 6.74666 171.984 6.95066 171.939 7.13199C171.44 8.85466 170.307 10.0107 168.539 10.6C168.448 10.6 168.357 10.6227 168.267 10.668C166.952 11.0307 165.841 10.7587 164.935 9.85199C163.892 8.76399 163.779 7.44932 164.595 5.90799C165.229 4.45732 166.317 3.55066 167.859 3.18799ZM161.807 18.08C162.441 17.944 163.257 17.9213 164.255 18.012C166.884 18.5107 168.539 19.9387 169.219 22.296C169.445 23.248 169.445 24.2453 169.219 25.288L166.159 33.584C164.119 38.9333 163.076 41.7213 163.031 41.948C162.487 43.716 162.464 44.8493 162.963 45.348C163.099 45.4387 163.348 45.484 163.711 45.484C164.209 45.484 164.527 45.4613 164.663 45.416C166.612 44.736 168.108 42.7187 169.151 39.364C169.241 39.1827 169.309 38.9787 169.355 38.752C169.581 38.072 169.808 37.7093 170.035 37.664C170.171 37.6187 170.579 37.596 171.259 37.596C172.12 37.596 172.596 37.6413 172.687 37.732C172.913 37.9133 172.959 38.2987 172.823 38.888C171.961 41.88 170.601 44.3053 168.743 46.164C167.473 47.3427 166.181 48.136 164.867 48.544C164.413 48.6347 163.801 48.68 163.031 48.68C162.215 48.68 161.625 48.6347 161.263 48.544C159.812 48.1813 158.724 47.524 157.999 46.572C157.455 45.9373 157.092 45.212 156.911 44.396C156.684 43.3987 156.684 42.3787 156.911 41.336L160.039 32.972C162.124 27.396 163.235 24.336 163.371 23.792C163.552 23.0213 163.552 22.3413 163.371 21.752C163.144 21.208 162.645 21.0267 161.875 21.208C160.515 21.48 159.291 22.5227 158.203 24.336C157.523 25.4693 156.979 26.852 156.571 28.484C156.435 28.756 156.344 28.9147 156.299 28.96C156.208 29.0507 155.732 29.096 154.871 29.096H153.579L153.375 28.892C153.148 28.7107 153.171 28.2347 153.443 27.464C154.576 23.656 156.412 20.9133 158.951 19.236C159.177 19.1 159.427 18.964 159.699 18.828C160.515 18.3747 161.217 18.1253 161.807 18.08Z" fill="white"/>
<path d="M181.168 18.08C181.848 17.8987 182.777 17.8987 183.956 18.08C186.54 18.7147 188.217 20.12 188.988 22.296L189.124 22.704L189.872 22.024C190.733 21.1627 191.527 20.5053 192.252 20.052C194.519 18.6013 197.012 17.8987 199.732 17.944C202.316 18.08 204.288 18.8053 205.648 20.12C207.416 21.8427 208.028 24.3587 207.484 27.668C207.031 30.2973 205.784 34.2867 203.744 39.636C202.973 41.7667 202.588 43.2627 202.588 44.124C202.588 44.8493 202.747 45.3027 203.064 45.484C203.427 45.6653 203.993 45.62 204.764 45.348C206.532 44.668 207.96 42.7867 209.048 39.704C209.139 39.3867 209.229 39.0693 209.32 38.752C209.547 38.072 209.773 37.7093 210 37.664C210.136 37.6187 210.544 37.596 211.224 37.596C212.085 37.596 212.584 37.6413 212.72 37.732C212.811 37.8227 212.856 38.004 212.856 38.276C212.856 39.0467 212.403 40.3387 211.496 42.152C210.68 43.8293 209.683 45.212 208.504 46.3C206.736 47.9773 204.809 48.7933 202.724 48.748C200.14 48.612 198.327 47.5467 197.284 45.552C196.876 44.736 196.672 43.8067 196.672 42.764C196.717 41.8573 196.989 40.792 197.488 39.568C199.211 34.8533 200.321 31.4307 200.82 29.3C201.545 26.58 201.681 24.4947 201.228 23.044C200.865 21.7747 199.981 21.14 198.576 21.14C194.768 21.14 191.549 23.3387 188.92 27.736L188.512 28.484L186.268 37.324C184.863 43.1267 184.047 46.232 183.82 46.64C183.185 48 182.12 48.7027 180.624 48.748C179.899 48.748 179.264 48.544 178.72 48.136C178.493 48.0453 178.289 47.796 178.108 47.388C177.881 46.9347 177.859 46.2547 178.04 45.348C178.267 44.3053 179.06 41.0413 180.42 35.556C182.188 28.5293 183.095 24.88 183.14 24.608C183.412 22.5227 183.049 21.3667 182.052 21.14C180.783 21.004 179.717 22.0467 178.856 24.268C178.539 25.084 178.221 26.1493 177.904 27.464L177.564 28.688C177.065 28.96 176.521 29.096 175.932 29.096H174.64L174.436 28.892C174.255 28.7107 174.255 28.2347 174.436 27.464C176.068 21.7973 178.312 18.6693 181.168 18.08Z" fill="white"/>
<path d="M238.633 18.012C239.449 17.9213 240.378 17.944 241.421 18.08C243.597 18.5787 245.138 19.6667 246.045 21.344L246.317 21.888L246.929 21.344C248.787 19.6667 250.827 18.5787 253.049 18.08C254.363 17.8987 255.587 17.9213 256.721 18.148C258.625 18.556 260.211 19.3947 261.481 20.664C262.614 21.7973 263.43 23.18 263.929 24.812C264.699 27.0787 264.813 29.5493 264.269 32.224C263.362 37.1653 261.027 41.268 257.265 44.532C256.585 45.1213 255.905 45.6427 255.225 46.096C253.819 47.0027 252.505 47.66 251.281 48.068C250.011 48.476 248.765 48.68 247.541 48.68C246.634 48.68 246.09 48.6573 245.909 48.612C244.277 48.2493 242.985 47.524 242.033 46.436C241.761 46.164 241.625 46.0507 241.625 46.096L238.905 56.976C238.905 57.112 238.973 57.18 239.109 57.18C239.517 57.316 240.605 57.384 242.373 57.384C243.234 57.384 243.71 57.4293 243.801 57.52C244.073 57.6107 244.209 57.8147 244.209 58.132L243.529 60.784C243.347 61.056 242.917 61.1693 242.237 61.124C242.055 61.124 241.715 61.124 241.217 61.124C235.459 60.9427 231.221 60.9653 228.501 61.192H227.957L227.753 60.988C227.571 60.8067 227.481 60.648 227.481 60.512L228.161 57.86V57.792C228.478 57.52 229.113 57.384 230.065 57.384C231.379 57.3387 232.15 57.2027 232.377 56.976C232.513 56.84 233.895 51.536 236.525 41.064C239.154 30.5467 240.514 25.0387 240.605 24.54C240.922 22.364 240.491 21.2307 239.313 21.14C239.177 21.14 239.041 21.14 238.905 21.14C237.545 21.412 236.343 23.6333 235.301 27.804C235.119 28.348 235.029 28.6427 235.029 28.688C234.53 28.96 233.986 29.096 233.397 29.096H232.105L231.901 28.892C231.719 28.7107 231.719 28.2347 231.901 27.464C232.762 24.2907 233.827 21.9107 235.097 20.324C236.094 19.1 237.273 18.3293 238.633 18.012ZM255.497 21.344C254.862 21.1173 254.114 21.0947 253.253 21.276C251.167 21.6387 249.127 23.0667 247.133 25.56L246.521 26.308L244.753 33.448C243.574 38.208 242.985 40.6107 242.985 40.656C242.985 41.1093 243.279 41.9253 243.869 43.104C244.367 43.9653 245.047 44.6227 245.909 45.076C247.949 46.1187 250.079 45.5973 252.301 43.512C253.797 42.152 255.043 39.7947 256.041 36.44C256.811 33.5387 257.355 31.2493 257.673 29.572C258.262 26.852 258.307 24.8573 257.809 23.588C257.355 22.4547 256.585 21.7067 255.497 21.344Z" fill="white"/>
<path d="M274.396 18.012C275.212 17.9213 276.141 17.944 277.184 18.08C279.315 18.5787 280.833 19.6213 281.74 21.208L281.944 21.548L282.352 21.072C283.304 20.12 284.301 19.3947 285.344 18.896C286.523 18.3067 287.837 18.012 289.288 18.012C290.104 18.012 290.671 18.0573 290.988 18.148C291.804 18.3747 292.597 18.76 293.368 19.304C294.909 20.5733 295.589 22.296 295.408 24.472C295.408 24.608 295.408 24.7213 295.408 24.812C295.136 27.0333 294.184 28.5293 292.552 29.3C291.283 29.8893 290.081 29.9347 288.948 29.436C287.633 28.8013 287.135 27.6453 287.452 25.968C287.633 25.0613 288.064 24.2227 288.744 23.452C289.333 22.908 289.991 22.5227 290.716 22.296L291.192 22.092L290.988 21.888C289.945 21.0267 288.631 20.8907 287.044 21.48C285.457 22.1147 284.007 23.588 282.692 25.9L282.148 26.716L279.768 36.44C278.091 42.968 277.184 46.368 277.048 46.64C276.413 48 275.348 48.7027 273.852 48.748C273.127 48.748 272.492 48.544 271.948 48.136C271.721 48.0453 271.517 47.796 271.336 47.388C271.109 46.9347 271.087 46.2547 271.268 45.348C271.495 44.3053 272.288 41.0413 273.648 35.556C275.416 28.5293 276.323 24.88 276.368 24.608C276.685 22.3867 276.255 21.2307 275.076 21.14C274.94 21.14 274.804 21.14 274.668 21.14C273.308 21.412 272.107 23.6333 271.064 27.804C270.883 28.348 270.792 28.6427 270.792 28.688C270.293 28.96 269.749 29.096 269.16 29.096H267.868L267.664 28.892C267.483 28.7107 267.483 28.2347 267.664 27.464C268.525 24.2907 269.591 21.9107 270.86 20.324C271.857 19.1 273.036 18.3293 274.396 18.012Z" fill="white"/>
<path d="M312.556 18.08C314.142 17.8533 315.706 17.9213 317.248 18.284C320.784 19.0547 323.322 21.0267 324.864 24.2C326.677 27.8267 326.586 31.884 324.592 36.372C324.229 37.188 323.821 37.9813 323.368 38.752C320.784 43.0587 317.202 46.0507 312.624 47.728C311.445 48.136 310.244 48.4307 309.02 48.612C308.068 48.7933 306.866 48.816 305.416 48.68C305.28 48.6347 305.166 48.612 305.076 48.612C302.492 48.204 300.316 47.1613 298.548 45.484C297.052 43.9427 296.077 42.1293 295.624 40.044C294.672 35.964 295.578 31.7707 298.344 27.464C299.976 24.9253 302.016 22.84 304.464 21.208C307.138 19.3947 309.836 18.352 312.556 18.08ZM314.868 21.208C313.1 20.9813 311.4 21.3213 309.768 22.228C307.184 23.6333 305.302 26.036 304.124 29.436C303.353 31.5213 302.741 33.8107 302.288 36.304C301.472 40.3387 302.038 43.0813 303.988 44.532C304.124 44.6227 304.26 44.7133 304.396 44.804C304.985 45.1667 305.62 45.3707 306.3 45.416C308.793 45.8693 311.173 45.1213 313.44 43.172C313.938 42.764 314.392 42.3107 314.8 41.812C316.16 40.18 317.27 37.6187 318.132 34.128C318.222 33.9013 318.29 33.652 318.336 33.38C319.061 30.524 319.424 28.3933 319.424 26.988C319.424 25.8547 319.288 24.9707 319.016 24.336C318.653 23.3387 317.973 22.5453 316.976 21.956C316.386 21.548 315.684 21.2987 314.868 21.208Z" fill="white"/>
<path d="M343.928 18.08C345.469 17.8533 346.761 17.9213 347.804 18.284C349.028 18.6467 350.161 19.4173 351.204 20.596L351.476 20.868L351.952 20.46C353.04 19.372 354.286 19.0547 355.692 19.508C356.372 19.7347 356.825 20.1653 357.052 20.8C357.188 21.2987 357.074 22.364 356.712 23.996C356.349 25.628 355.238 30.1613 353.38 37.596C350.66 48.204 349.3 53.4853 349.3 53.44C348.801 54.8453 348.053 56.0693 347.056 57.112C345.832 58.336 344.472 59.3107 342.976 60.036C341.48 60.716 340.278 61.1467 339.372 61.328C337.694 61.7813 335.858 61.9853 333.864 61.94C331.053 61.8947 328.922 61.532 327.472 60.852C326.248 60.308 325.432 59.5827 325.024 58.676C324.661 58.0413 324.548 57.2933 324.684 56.432C325.001 54.664 325.908 53.4173 327.404 52.692C328.764 52.012 330.033 51.9893 331.212 52.624C331.756 52.896 332.118 53.2587 332.3 53.712C332.934 54.936 332.776 56.2733 331.824 57.724C331.688 57.9053 331.552 58.0867 331.416 58.268L331.144 58.608H331.484L333.796 58.744C335.473 58.744 336.742 58.608 337.604 58.336C339.734 57.656 341.389 56.296 342.568 54.256C342.749 53.9387 342.908 53.5987 343.044 53.236L345.016 45.552L344.472 45.96C343.338 46.6853 342.25 47.2067 341.208 47.524C340.21 47.8413 339.122 48 337.944 48C336.901 47.864 336.357 47.796 336.312 47.796C333.274 47.1613 331.098 45.5067 329.784 42.832C328.877 41.064 328.424 39.1373 328.424 37.052C328.424 35.828 328.537 34.7173 328.764 33.72C329.716 28.7787 332.209 24.6987 336.244 21.48C336.38 21.3893 336.516 21.2987 336.652 21.208C339.009 19.3947 341.434 18.352 343.928 18.08ZM345.968 21.276C344.109 20.868 342.273 21.5253 340.46 23.248C339.009 24.608 337.785 27.0787 336.788 30.66C336.561 31.4307 336.312 32.3373 336.04 33.38C335.224 36.6893 334.838 39.0467 334.884 40.452C334.929 41.404 335.088 42.152 335.36 42.696C335.904 43.6933 336.629 44.328 337.536 44.6C338.352 44.8267 339.258 44.8267 340.256 44.6C341.253 44.328 342.205 43.852 343.112 43.172C344.245 42.356 345.22 41.404 346.036 40.316L346.512 39.704L348.28 32.836L349.98 25.968L349.844 25.492C349.118 23.044 347.826 21.6387 345.968 21.276Z" fill="white"/>
<path d="M365.386 18.012C366.202 17.9213 367.131 17.944 368.174 18.08C370.304 18.5787 371.823 19.6213 372.73 21.208L372.934 21.548L373.342 21.072C374.294 20.12 375.291 19.3947 376.334 18.896C377.512 18.3067 378.827 18.012 380.278 18.012C381.094 18.012 381.66 18.0573 381.978 18.148C382.794 18.3747 383.587 18.76 384.358 19.304C385.899 20.5733 386.579 22.296 386.398 24.472C386.398 24.608 386.398 24.7213 386.398 24.812C386.126 27.0333 385.174 28.5293 383.542 29.3C382.272 29.8893 381.071 29.9347 379.938 29.436C378.623 28.8013 378.124 27.6453 378.442 25.968C378.623 25.0613 379.054 24.2227 379.734 23.452C380.323 22.908 380.98 22.5227 381.706 22.296L382.182 22.092L381.978 21.888C380.935 21.0267 379.62 20.8907 378.034 21.48C376.447 22.1147 374.996 23.588 373.682 25.9L373.138 26.716L370.758 36.44C369.08 42.968 368.174 46.368 368.038 46.64C367.403 48 366.338 48.7027 364.842 48.748C364.116 48.748 363.482 48.544 362.938 48.136C362.711 48.0453 362.507 47.796 362.326 47.388C362.099 46.9347 362.076 46.2547 362.258 45.348C362.484 44.3053 363.278 41.0413 364.638 35.556C366.406 28.5293 367.312 24.88 367.358 24.608C367.675 22.3867 367.244 21.2307 366.066 21.14C365.93 21.14 365.794 21.14 365.658 21.14C364.298 21.412 363.096 23.6333 362.054 27.804C361.872 28.348 361.782 28.6427 361.782 28.688C361.283 28.96 360.739 29.096 360.15 29.096H358.858L358.654 28.892C358.472 28.7107 358.472 28.2347 358.654 27.464C359.515 24.2907 360.58 21.9107 361.85 20.324C362.847 19.1 364.026 18.3293 365.386 18.012Z" fill="white"/>
<path d="M404.089 18.012H406.809C410.073 18.5107 412.159 20.0067 413.065 22.5C413.337 23.4067 413.383 24.336 413.201 25.288C412.431 28.7787 409.915 31.068 405.653 32.156C403.749 32.7 400.599 33.04 396.201 33.176H394.025L393.889 33.584C393.708 34.3547 393.481 35.5333 393.209 37.12C393.028 38.5707 393.028 39.8627 393.209 40.996C393.481 42.3107 394.048 43.376 394.909 44.192C395.952 45.144 397.357 45.5973 399.125 45.552C402.752 45.3253 405.812 44.2827 408.305 42.424C409.167 41.88 409.892 41.2227 410.481 40.452C410.98 39.8627 411.388 39.6813 411.705 39.908C411.841 39.9987 412.091 40.2253 412.453 40.588C413.088 41.268 413.383 41.6987 413.337 41.88C413.292 42.1067 412.793 42.696 411.841 43.648C408.985 46.368 405.313 48 400.825 48.544C399.284 48.816 397.924 48.8613 396.745 48.68C392.484 48.2267 389.515 46.0733 387.837 42.22C387.52 41.54 387.271 40.8147 387.089 40.044C386.772 38.9107 386.613 37.4827 386.613 35.76C386.659 33.0853 387.248 30.6373 388.381 28.416C389.197 26.7387 390.308 25.1973 391.713 23.792C392.393 23.1573 393.232 22.4547 394.229 21.684C396.995 19.644 399.987 18.4427 403.205 18.08C403.432 18.0347 403.727 18.012 404.089 18.012ZM405.925 21.208C404.248 20.8907 402.48 21.208 400.621 22.16C397.947 23.384 396.088 25.7413 395.045 29.232C394.955 29.5947 394.887 29.7987 394.841 29.844C394.841 29.9347 395.589 29.98 397.085 29.98C400.032 29.9347 402.253 29.7307 403.749 29.368C406.832 28.7333 408.645 27.4187 409.189 25.424C409.371 24.6987 409.348 24.064 409.121 23.52C408.713 22.3413 407.648 21.5707 405.925 21.208Z" fill="white"/>
<path d="M431.549 18.012C432.592 17.9213 433.793 17.944 435.153 18.08C437.375 18.5333 438.961 19.372 439.913 20.596C440.367 21.0947 440.707 21.752 440.933 22.568C441.16 23.384 441.16 24.2453 440.933 25.152C440.525 26.8747 439.483 27.94 437.805 28.348C437.261 28.484 436.717 28.484 436.173 28.348C435.403 28.212 434.836 27.804 434.473 27.124C434.337 26.8973 434.247 26.5573 434.201 26.104C434.201 25.3787 434.36 24.6987 434.677 24.064C434.949 23.4293 435.448 22.8853 436.173 22.432L436.581 22.16L436.241 21.956C434.791 21.14 433.113 20.9133 431.209 21.276C430.937 21.3213 430.688 21.3893 430.461 21.48C429.373 21.7973 428.535 22.432 427.945 23.384C426.721 25.1973 426.676 26.648 427.809 27.736C427.9 27.8267 428.013 27.9173 428.149 28.008C428.603 28.3253 429.623 28.6653 431.209 29.028C432.66 29.3 433.544 29.504 433.861 29.64C436.4 30.4107 438.1 31.884 438.961 34.06C439.324 34.8307 439.505 35.7827 439.505 36.916C439.505 37.7773 439.483 38.344 439.437 38.616C439.029 40.4747 438.304 42.1067 437.261 43.512C434.677 47.1387 430.665 48.884 425.225 48.748C421.236 48.612 418.493 47.388 416.997 45.076C416.861 44.8947 416.748 44.6907 416.657 44.464C416.34 43.8293 416.181 43.0587 416.181 42.152C416.136 41.2453 416.317 40.3613 416.725 39.5C417.088 38.9107 417.383 38.48 417.609 38.208C419.06 36.8027 420.624 36.4173 422.301 37.052C422.392 37.0973 422.483 37.1427 422.573 37.188C423.48 37.596 424.001 38.2987 424.137 39.296C424.364 40.792 423.843 42.1067 422.573 43.24C422.301 43.512 421.984 43.7387 421.621 43.92C421.304 44.1013 421.123 44.2147 421.077 44.26C421.213 44.4867 421.803 44.7587 422.845 45.076C423.752 45.348 424.885 45.484 426.245 45.484C427.605 45.484 428.693 45.348 429.509 45.076C431.005 44.6227 432.139 43.7613 432.909 42.492C433.952 40.996 434.179 39.6813 433.589 38.548C433.136 37.596 432.365 36.9387 431.277 36.576C430.96 36.44 430.121 36.236 428.761 35.964C427.175 35.6467 425.951 35.3067 425.089 34.944C423.276 33.9467 422.097 32.4733 421.553 30.524C421.463 30.1613 421.417 29.5947 421.417 28.824C421.372 28.008 421.531 26.988 421.893 25.764C422.392 24.268 423.14 22.908 424.137 21.684C425.86 19.644 428.331 18.42 431.549 18.012Z" fill="white"/>
<path d="M456.624 18.012C457.667 17.9213 458.868 17.944 460.228 18.08C462.45 18.5333 464.036 19.372 464.988 20.596C465.442 21.0947 465.782 21.752 466.008 22.568C466.235 23.384 466.235 24.2453 466.008 25.152C465.6 26.8747 464.558 27.94 462.88 28.348C462.336 28.484 461.792 28.484 461.248 28.348C460.478 28.212 459.911 27.804 459.548 27.124C459.412 26.8973 459.322 26.5573 459.276 26.104C459.276 25.3787 459.435 24.6987 459.752 24.064C460.024 23.4293 460.523 22.8853 461.248 22.432L461.656 22.16L461.316 21.956C459.866 21.14 458.188 20.9133 456.284 21.276C456.012 21.3213 455.763 21.3893 455.536 21.48C454.448 21.7973 453.61 22.432 453.02 23.384C451.796 25.1973 451.751 26.648 452.884 27.736C452.975 27.8267 453.088 27.9173 453.224 28.008C453.678 28.3253 454.698 28.6653 456.284 29.028C457.735 29.3 458.619 29.504 458.936 29.64C461.475 30.4107 463.175 31.884 464.036 34.06C464.399 34.8307 464.58 35.7827 464.58 36.916C464.58 37.7773 464.558 38.344 464.512 38.616C464.104 40.4747 463.379 42.1067 462.336 43.512C459.752 47.1387 455.74 48.884 450.3 48.748C446.311 48.612 443.568 47.388 442.072 45.076C441.936 44.8947 441.823 44.6907 441.732 44.464C441.415 43.8293 441.256 43.0587 441.256 42.152C441.211 41.2453 441.392 40.3613 441.8 39.5C442.163 38.9107 442.458 38.48 442.684 38.208C444.135 36.8027 445.699 36.4173 447.376 37.052C447.467 37.0973 447.558 37.1427 447.648 37.188C448.555 37.596 449.076 38.2987 449.212 39.296C449.439 40.792 448.918 42.1067 447.648 43.24C447.376 43.512 447.059 43.7387 446.696 43.92C446.379 44.1013 446.198 44.2147 446.152 44.26C446.288 44.4867 446.878 44.7587 447.92 45.076C448.827 45.348 449.96 45.484 451.32 45.484C452.68 45.484 453.768 45.348 454.584 45.076C456.08 44.6227 457.214 43.7613 457.984 42.492C459.027 40.996 459.254 39.6813 458.664 38.548C458.211 37.596 457.44 36.9387 456.352 36.576C456.035 36.44 455.196 36.236 453.836 35.964C452.25 35.6467 451.026 35.3067 450.164 34.944C448.351 33.9467 447.172 32.4733 446.628 30.524C446.538 30.1613 446.492 29.5947 446.492 28.824C446.447 28.008 446.606 26.988 446.968 25.764C447.467 24.268 448.215 22.908 449.212 21.684C450.935 19.644 453.406 18.42 456.624 18.012Z" fill="white"/>
</g>
<defs>
<clipPath id="clip0">
<rect width="466" height="62" fill="white"/>
</clipPath>
</defs>
</svg>
